<svg xmlns="http://www.w3.org/2000/svg" viewBox="0 0 426.461 426.461" style="enable-background:new 0 0 426.461 426.461" xml:space="preserve"><path d="M181.135 207.145c8.724 0 15.821-7.097 15.821-15.819 0-8.725-7.098-15.824-15.821-15.824-8.725 0-15.822 7.099-15.822 15.824 0 8.723 7.098 15.819 15.822 15.819zm0-22.643c3.762 0 6.821 3.061 6.821 6.824 0 3.76-3.06 6.819-6.821 6.819-3.762 0-6.822-3.059-6.822-6.819 0-3.763 3.061-6.824 6.822-6.824zM273.621 289.674c-8.724 0-15.821 7.099-15.821 15.824 0 8.723 7.098 15.819 15.821 15.819 8.725 0 15.822-7.097 15.822-15.819 0-8.726-7.098-15.824-15.822-15.824zm0 22.643a6.827 6.827 0 0 1-6.821-6.819c0-3.763 3.06-6.824 6.821-6.824 3.762 0 6.822 3.061 6.822 6.824 0 3.76-3.061 6.819-6.822 6.819zM242.048 113.713c1.181 0 2.34-.48 3.181-1.32.84-.84 1.319-2 1.319-3.18a4.53 4.53 0 0 0-1.319-3.18c-.841-.84-2-1.32-3.181-1.32-1.189 0-2.35.48-3.18 1.32-.84.84-1.32 2-1.32 3.18 0 1.18.48 2.34 1.32 3.18a4.534 4.534 0 0 0 3.18 1.32zM217.249 67.353c1.19 0 2.35-.48 3.18-1.32.841-.84 1.32-2 1.32-3.18 0-1.18-.48-2.34-1.32-3.18a4.494 4.494 0 0 0-3.18-1.32c-1.18 0-2.34.48-3.18 1.32-.84.84-1.32 2-1.32 3.18 0 1.19.48 2.35 1.32 3.18.84.84 2 1.32 3.18 1.32zM217.249 152.913c-1.18 0-2.34.49-3.18 1.32-.84.84-1.32 2-1.32 3.19 0 1.18.48 2.34 1.32 3.18.84.83 2 1.31 3.18 1.31 1.19 0 2.35-.48 3.18-1.31.841-.84 1.32-2 1.32-3.18 0-1.19-.48-2.35-1.32-3.19a4.54 4.54 0 0 0-3.18-1.32zM247.459 152.923c-1.18 0-2.34.48-3.18 1.31-.84.84-1.32 2-1.32 3.19 0 1.18.48 2.34 1.32 3.18.84.84 2 1.32 3.18 1.32 1.19 0 2.35-.48 3.18-1.32.841-.84 1.32-2 1.32-3.18 0-1.19-.48-2.35-1.32-3.19a4.53 4.53 0 0 0-3.18-1.31zM217.249 220.053a4.509 4.509 0 0 0 4.5-4.5c0-1.18-.48-2.34-1.32-3.18a4.494 4.494 0 0 0-3.18-1.32c-1.18 0-2.34.48-3.18 1.32-.84.84-1.32 2-1.32 3.18 0 1.19.48 2.35 1.32 3.18.84.84 2 1.32 3.18 1.32zM158.169 221.593c.84-.84 1.32-2 1.32-3.18 0-1.18-.48-2.34-1.32-3.18-.84-.84-2-1.32-3.18-1.32-1.181 0-2.34.48-3.181 1.32-.84.84-1.319 2-1.319 3.18 0 1.18.48 2.34 1.319 3.18.841.84 2 1.32 3.181 1.32 1.18 0 2.34-.48 3.18-1.32zM247.459 256.463c1.19 0 2.35-.48 3.18-1.31.841-.84 1.32-2 1.32-3.19 0-1.18-.48-2.34-1.32-3.18a4.494 4.494 0 0 0-3.18-1.32c-1.18 0-2.34.48-3.18 1.32-.84.84-1.32 2-1.32 3.18 0 1.19.48 2.35 1.32 3.19.84.83 2 1.31 3.18 1.31zM185.489 256.463c1.18 0 2.34-.48 3.18-1.32.84-.83 1.32-1.99 1.32-3.18 0-1.18-.48-2.34-1.32-3.18-.84-.84-2-1.32-3.18-1.32-1.19 0-2.351.48-3.19 1.32-.83.84-1.31 2-1.31 3.18 0 1.19.48 2.35 1.31 3.18a4.533 4.533 0 0 0 3.19 1.32zM182.989 283.413c1.18 0 2.34-.48 3.18-1.32.84-.84 1.32-1.99 1.32-3.18 0-1.18-.48-2.34-1.32-3.18-.84-.84-2-1.32-3.18-1.32-1.19 0-2.34.48-3.19 1.32-.83.84-1.31 2-1.31 3.18 0 1.18.48 2.34 1.31 3.18a4.533 4.533 0 0 0 3.19 1.32zM160.878 276.033c1.191 0 2.351-.48 3.191-1.32.83-.84 1.319-2 1.319-3.18 0-1.19-.489-2.35-1.319-3.18-.84-.84-2-1.32-3.191-1.32-1.18 0-2.34.48-3.18 1.32-.84.83-1.32 1.99-1.32 3.18 0 1.18.48 2.34 1.32 3.18a4.534 4.534 0 0 0 3.18 1.32zM219.249 323.113c-1.18 0-2.34.48-3.18 1.31-.84.84-1.32 2-1.32 3.19 0 1.18.48 2.34 1.32 3.18.84.84 2 1.32 3.18 1.32 1.19 0 2.34-.48 3.19-1.32.83-.84 1.31-2 1.31-3.18 0-1.18-.48-2.35-1.31-3.19-.841-.83-2-1.31-3.19-1.31zM237.718 300.993c-1.189 0-2.35.49-3.189 1.32-.83.84-1.311 2-1.311 3.18 0 1.19.48 2.35 1.311 3.19.84.83 2 1.31 3.189 1.31 1.181 0 2.34-.48 3.181-1.31.84-.84 1.319-2 1.319-3.19 0-1.18-.48-2.34-1.319-3.18-.841-.83-2-1.32-3.181-1.32zM273.619 280.953c1.18 0 2.35-.48 3.18-1.32.84-.84 1.32-2 1.32-3.18 0-1.18-.48-2.34-1.32-3.18a4.496 4.496 0 0 0-3.18-1.32c-1.19 0-2.35.48-3.18 1.32-.841.84-1.32 2-1.32 3.18 0 1.18.48 2.34 1.32 3.18.84.84 2 1.32 3.18 1.32z"/><path d="M366.378 312.496c.381-.819.72-1.713.997-2.71 1.285-4.627 1.346-13.453-3.963-17.439-2.547-1.912-7.018-3.309-13.832.903-4.425 2.735-7.955 6.308-10.577 10.665-2.622-4.357-6.151-7.93-10.575-10.664-6.815-4.214-11.281-2.816-13.829-.904-1.051.789-1.884 1.772-2.546 2.869-8.081-15.436-15.56-32.269-21.375-46.23a96.776 96.776 0 0 0 12.458-3.055c13.746-4.377 15.89-8.549 16.306-11.305.31-2.047-.095-5.669-5.825-7.887-16.512-18.785-34.961-58.76-45.889-84.548 4.535-1.161 7.365-3.863 9.747-6.145 2.653-2.543 4.406-4.223 8.311-4.223a4.5 4.5 0 0 0 4.5-4.5c0-.013-.004-.025-.004-.038a4.488 4.488 0 0 0-1.978-3.777c-33.494-22.616-63.156-92.262-66.551-100.433v-5.257h4.315a4.5 4.5 0 0 0 0-9h-4.315V4.5a4.5 4.5 0 0 0-9 0v4.316h-4.316a4.5 4.5 0 0 0 0 9h4.316v5.257c-3.395 8.171-33.057 77.817-66.552 100.433a4.49 4.49 0 0 0-1.978 3.777c0 .013-.004.025-.004.038a4.5 4.5 0 0 0 4.497 4.5v.001l.01-.001c3.898.002 5.649 1.681 8.3 4.222 2.382 2.283 5.214 4.987 9.751 6.146-11.089 26.167-29.925 66.963-46.619 85.381a4.5 4.5 0 0 0 3.333 7.522h.001c6.004 0 8.875 2.752 12.511 6.238 2.266 2.172 4.843 4.638 8.346 6.396-16.588 40.002-32.458 69.429-44.863 83.117a4.5 4.5 0 0 0 3.329 7.521v.001c.051 0 .103-.009.154-.011 7.622.045 11.24 3.506 15.808 7.883 5.082 4.871 10.841 10.391 22.185 10.391s17.104-5.52 22.185-10.39c4.599-4.407 8.231-7.888 15.96-7.888 7.727 0 11.357 3.481 15.955 7.888.479.46.971.925 1.467 1.391h-30.264a4.5 4.5 0 0 0-4.5 4.5v22.451H126.31c.331-.771.629-1.601.882-2.51 1.392-5.013 1.477-14.56-4.221-18.838-2.707-2.033-7.473-3.501-14.804 1.029-5.084 3.143-9.098 7.291-12.009 12.391-2.912-5.101-6.926-9.249-12.01-12.39-7.329-4.531-12.094-3.061-14.802-1.03-5.699 4.279-5.612 13.827-4.22 18.839.253.909.551 1.738.881 2.509h-3.143a4.5 4.5 0 0 0-4.5 4.5v42.878a4.5 4.5 0 0 0 4.5 4.5h300.604a4.5 4.5 0 0 0 4.5-4.5V315.902c-.001-1.37-.626-2.581-1.59-3.406zm-46.376-12.952c.102-.079 1.229-.162 3.692 1.362 5.006 3.094 7.654 7.199 9.102 10.496h-8.5c-2.729-.224-4.169-1.071-4.989-4.024-.895-3.223-.201-7.162.695-7.834zm-21.79-78.126c-12.86-4.872-24.923-10.674-36.09-16.925 4.257-2.838 7.069-7.679 7.069-13.167 0-8.725-7.098-15.824-15.821-15.824-8.025 0-14.658 6.013-15.672 13.767-28.521-19.649-48.395-40.04-56.62-49.101 2.011-1.247 3.597-2.76 5.02-4.124 2.652-2.542 4.404-4.222 8.307-4.222 3.902 0 5.654 1.68 8.307 4.222 3.127 2.996 7.018 6.725 14.537 6.725 7.518 0 11.409-3.729 14.534-6.725 2.653-2.543 4.406-4.223 8.31-4.223 3.903 0 5.656 1.68 8.31 4.223 2.346 2.248 5.122 4.908 9.538 6.097 10.842 25.923 25.623 57.952 40.271 79.277zm-51.664-30.092c0-3.763 3.06-6.824 6.821-6.824 3.762 0 6.821 3.061 6.821 6.824 0 3.76-3.06 6.819-6.821 6.819-3.761 0-6.821-3.059-6.821-6.819zM217.253 35.381c4.019 9.008 10.727 23.188 19.308 38.203a104.475 104.475 0 0 1-8.323 8.392c-2.849-2.754-6.719-4.459-10.984-4.459-8.725 0-15.822 7.097-15.822 15.821 0 2.405.555 4.678 1.52 6.721-12.503 7.231-25.178 12.645-35.239 16.39 22.89-24.714 41.54-63.137 49.54-81.068zm6.821 57.957a6.829 6.829 0 0 1-6.821 6.821 6.83 6.83 0 0 1-6.822-6.821c0-3.761 3.061-6.821 6.822-6.821a6.829 6.829 0 0 1 6.821 6.821zm-60.82 36.209a75.836 75.836 0 0 0-1.516-1.423c11.434-3.777 29.523-10.668 47.38-21.24a15.702 15.702 0 0 0 8.134 2.276c8.724 0 15.821-7.097 15.821-15.821 0-1.133-.125-2.237-.353-3.303 3.1-2.709 5.977-5.498 8.625-8.339 9.936 16.341 21.877 32.73 34.809 43.796-1.958 1.233-3.51 2.717-4.907 4.056-2.653 2.542-4.406 4.222-8.31 4.222s-5.656-1.68-8.31-4.223c-3.126-2.996-7.017-6.725-14.536-6.725-7.519 0-11.41 3.729-14.537 6.725-2.652 2.542-4.404 4.222-8.307 4.222-3.903 0-5.656-1.68-8.31-4.223-3.125-2.996-7.016-6.725-14.534-6.725-7.518 0-11.409 3.729-14.535 6.725-2.652 2.543-4.405 4.223-8.308 4.223-3.9 0-5.653-1.68-8.306-4.223zm-21.023 105.288c-2.681-2.57-5.805-5.546-10.377-7.279 15.23-19.831 31.059-53.22 42.838-80.969 15.019 16.665 63.627 65.708 133.341 87.79-5.904 2.969-19.151 6.696-28.276 6.696-6.006 0-8.879-2.753-12.516-6.238-4.063-3.894-9.119-8.74-18.742-8.74-9.62 0-14.677 4.846-18.738 8.74-3.637 3.485-6.509 6.238-12.515 6.238-6.005 0-8.876-2.753-12.512-6.238-4.063-3.895-9.118-8.741-18.739-8.741s-14.678 4.847-18.74 8.741c-3.636 3.485-6.507 6.238-12.512 6.238s-8.876-2.753-12.512-6.238zm-28.488 92.48c14.384-20.224 28.837-51.713 39.398-77.293a26.84 26.84 0 0 0 1.602.051c9.621 0 14.678-4.847 18.74-8.741 3.636-3.485 6.507-6.238 12.512-6.238 6.004 0 8.875 2.752 12.511 6.238 4.063 3.894 9.118 8.741 18.74 8.741 9.623 0 14.679-4.847 18.742-8.741 3.636-3.485 6.507-6.237 12.511-6.237 6.006 0 8.879 2.753 12.516 6.238 3.219 3.085 7.07 6.758 13.313 8.155-12.332 12.625-26.5 23.376-41.297 32.506-.449-8.324-7.344-14.963-15.777-14.963-8.725 0-15.822 7.097-15.822 15.821 0 5.3 2.629 9.988 6.641 12.861-10.788 5.283-21.555 9.811-31.869 13.67.316-1.246.503-2.543.503-3.885 0-8.725-7.098-15.824-15.821-15.824-8.724 0-15.821 7.099-15.821 15.824 0 5.006 2.345 9.469 5.987 12.37-15.444 4.665-28.565 7.676-37.309 9.447zm96.687-44.463c0-3.761 3.061-6.821 6.822-6.821a6.828 6.828 0 0 1 6.821 6.821 6.83 6.83 0 0 1-6.821 6.822 6.83 6.83 0 0 1-6.822-6.822zm-56.368 22.645c0-3.763 3.06-6.824 6.821-6.824 3.762 0 6.821 3.061 6.821 6.824a6.827 6.827 0 0 1-6.821 6.819 6.827 6.827 0 0 1-6.821-6.819zm58.942 111.964H96.66v-14.258h116.345v14.258zm0-23.258H96.66v-10.621h116.345v10.621zM87.66 383.582v10.621H67.363v-10.621H87.66zm25.237-21.663c2.675-1.654 4.258-1.794 4.668-1.487 1.27.954 1.96 5.602.952 9.232-1.231 4.433-3.7 4.918-8.653 4.918h-7.598c1.551-3.843 4.554-8.907 10.631-12.663zm-39.101 7.745c-1.009-3.629-.319-8.278.952-9.232.405-.309 1.989-.167 4.665 1.488 6.077 3.755 9.08 8.819 10.632 12.663H82.45c-4.953-.001-7.422-.486-8.654-4.919zm-6.433 33.539H87.66v14.258H67.363v-14.258zm165.852 14.258h-11.211v-38.378a4.5 4.5 0 0 0-4.5-4.5h-46.742v-17.951h62.453v60.829zm19.657 0h-10.656v-60.83h10.656v60.83zm38.347 0h-29.348v-14.258h29.348v14.258zm0-23.258h-29.348v-10.621h29.348v10.621zm0-19.621h-29.348v-22.451a4.5 4.5 0 0 0-4.5-4.5h-19.406c.495-.465.984-.931 1.464-1.39 4.599-4.407 8.23-7.888 15.959-7.888 7.73 0 11.362 3.481 15.962 7.888 4.723 4.525 10.038 9.606 19.869 10.303v18.038zm0-58.68v31.607c-6.183-.634-9.531-3.826-13.643-7.766-5.082-4.87-10.843-10.39-22.188-10.39-11.345 0-17.105 5.52-22.186 10.391-4.599 4.407-8.23 7.888-15.958 7.888s-11.359-3.481-15.958-7.888c-5.081-4.87-10.84-10.39-22.183-10.39-11.345 0-17.105 5.52-22.186 10.391-4.599 4.407-8.23 7.888-15.958 7.888-7.727 0-11.358-3.481-15.956-7.888-1.56-1.495-3.185-3.049-5.013-4.487 12.387-2.638 30.722-7.197 51.591-14.517 33.107-11.612 78.53-32.555 111.263-67.153 7.389 17.661 17.314 39.624 27.813 57.815h-14.938a4.499 4.499 0 0 0-4.5 4.499zm46.27 101.559h-37.27v-76.438h37.27v76.438zm0-85.438h-37.27v-11.622h37.27v11.622zm21.478 85.438h-12.478v-76.438h12.478v76.438zm0-85.438h-12.478v-11.622h12.478v11.622zm-.264-24.646c-.82 2.954-2.26 3.801-4.989 4.025h-8.499c1.444-3.296 4.088-7.4 9.098-10.496 2.462-1.521 3.591-1.439 3.696-1.361.894.671 1.588 4.61.694 7.832z"/></svg>