<svg version="1.0" xmlns="http://www.w3.org/2000/svg" width="1706.667" height="1633.333" viewBox="0 0 1280 1225"><path d="M1139 17.2c-54.7 9.4-101.8 17.9-104.7 19-2.8 1-7 3.4-9.3 5.2-8 6.3-7.5 5.3-31.8 67.6-5.5 14-23.6 60.5-40.3 103.2L922.6 290h-7.7c-4.2 0-70.2 1.6-146.6 3.5-76.3 1.9-211.7 5.3-300.8 7.5-453.2 11.3-436.9 10.8-442.1 12.6-6.5 2.1-10 4.4-15.1 9.6-5.1 5.3-9.3 14-10 21C0 347.6 3 375.9 8.9 424c5 41 14.9 123.1 22.1 182.5C51.3 774.4 49.5 761.1 52.6 768c2.7 6.1 10.3 14.4 16 17.3 7 3.6-9.6 2.1 237.4 21.7 48.7 3.9 128.1 10.2 176.5 14 48.4 3.9 120.5 9.6 160.3 12.8l72.2 5.7 66 51.8c36.2 28.5 68.4 54.5 71.4 57.8 6.5 7 13.2 19.8 14.7 28.4 2.9 16.1-3.7 29.1-17.7 34.6l-5.9 2.3-94.5.8c-52 .4-229.7 1.2-395 1.6l-300.5.8-5.8 2.3c-8.1 3.2-16.6 11.3-20.3 19.3-2.4 5.3-2.8 7.5-2.8 14.3.1 4.9.7 9.7 1.8 12.4 2.2 5.9 7.9 13.3 13.2 17.1 8.7 6.2 10 6.4 44.1 7l31.3.5-5.4 4.2c-11.4 8.8-21.3 23.8-25.4 38.6-1.2 4.5-1.7 9.8-1.6 19.2 0 11.3.4 14.1 2.7 21 9.9 29.5 35.1 49.2 65.7 51.2 27.8 1.7 55.7-13.9 68.8-38.5 12-22.6 11.3-50.2-1.7-72.2-4-6.7-12.5-16.1-19.6-21.7l-4-3.2h85.1c46.8-.1 186.5-.4 310.5-.7l225.4-.6-4.5 2.9c-21.5 14.2-34.3 39.6-32.7 65.3 2 33 26.2 60.7 58.9 67.4 16.2 3.3 30.4 1.4 46.7-6.6 9.1-4.3 11.6-6.2 19.1-13.7 7-7 9.4-10.3 13.3-18.1 6.4-12.8 8.1-20 8.1-33.5 0-13.1-1.7-20.6-7.3-32-4.8-9.7-11.6-18.3-19.6-24.8-6.7-5.3-19.7-12.3-25.1-13.3-5-.9-5-1.9.2-3.9 6.8-2.6 17.8-8.9 25.4-14.5 19.1-14.2 37.7-41.9 41.1-61.2 1.5-9 1.5-27 0-35.8-1.9-10.3-6.7-24.8-11.3-34-12.9-25.5-24.5-37-85-84.4-25.2-19.7-45.8-36.3-45.8-36.8s7.2-19.5 16.1-42.1c8.9-22.7 19.6-50.2 23.9-61.2 4.3-11 16-40.9 26-66.5s21.8-55.7 26.2-67c9.9-25.5 31.7-81.1 64.8-166 3.8-9.6 15-38.4 25-64 19.4-49.7 22-56.2 50-128 18.2-46.6 29.8-76.3 39.2-100.5 2.8-7.2 5.2-13.1 5.3-13.3.2-.2 40.9-7.2 90.5-15.7 99.9-17 96.7-16.2 105.4-25.5 7.3-7.8 10-14.7 10-25 0-9.6-2.5-16.6-8.2-23.1-6.8-7.8-18-13-27.6-12.8-2.8 0-49.9 7.7-104.6 17.1zm-246 336C866.1 422.6 846.8 472 845.7 474l-1.3 2.5h-65.9v-128l40.5-1.1c22.3-.6 48.7-1.1 58.7-1.2l18.1-.2-2.8 7.2zm-140.2 59.5-.3 63.8-61.2.3-61.3.2V352l11.8-.1c6.4-.1 31.3-.7 55.2-1.3 23.9-.7 46.3-1.4 49.8-1.4l6.2-.2-.2 63.7zm-148.5 2-.3 61.8H481.5l-.3-60.3-.2-60.2 4.2-.1c2.4-.1 23.9-.7 47.8-1.3 23.9-.7 49.8-1.4 57.5-1.4l14-.2-.2 61.7zM456 417v60l-61.2-.2-61.3-.3-.3-58.3c-.1-32-.1-58.3 0-58.3.7-.3 87.3-2.6 104.1-2.7l18.7-.2v60zm-148.5 1.5v58l-61.2.2-61.3.3V363l13.8-.1c7.5-.1 33.5-.7 57.7-1.4 24.2-.7 45.6-1.2 47.5-1.1l3.5.1v58zm-148.5 2V477h-44.4c-29 0-44.7-.4-45.1-1-1-1.6-13.6-108.2-12.9-108.9.5-.5 61.1-2.5 91.7-2.9l10.7-.2v56.5zm0 139V617h-36.5c-20.1 0-36.5-.2-36.5-.4 0-.7-12.9-107.7-13.4-111.4l-.5-3.2H159v57.5zm149 0V617H185V502h123v57.5zm148 0V617H333V502h123v57.5zm148.3-.3-.3 57.3H481.5l-.3-57.3-.2-57.2h123.5l-.2 57.2zm148.7.3V617H630V502h123v57.5zm79.6-51.3c-3.1 8.1-38.1 97.6-41.7 106.5-.7 2-1.6 2.3-6.9 2.3h-6V502h57l-2.4 6.2zM159 683.3v41.3l-29.7-2.4c-16.4-1.3-30.1-2.6-30.4-3-.4-.4-2.5-16.7-4.8-36.2-2.3-19.5-4.4-36.7-4.7-38.3l-.6-2.7H159v41.3zm149 5.7v47h-2.9c-1.5 0-28.1-2-59-4.5s-57.3-4.5-58.6-4.5H185v-85h123v47zm148 6c0 29.1-.3 53-.7 53-2.3.1-120-9.2-121-9.6-1-.3-1.3-10.8-1.3-48.4v-48h123v53zm148.3 6.4.2 58.8-6-.6c-3.3-.3-29.6-2.4-58.5-4.6-28.9-2.2-53.8-4.3-55.5-4.5l-3-.5.2-53.7c.2-29.6.3-53.9.3-54.1 0-.1 27.5-.1 61 0l61 .3.3 58.9zM753 677v34.9l-10.9 27.8c-5.9 15.3-11.2 28.8-11.6 30.1-.5 1.7-1.1 2.2-2.3 1.7-4.4-1.9-11.5-2.7-48.2-5.5-21.7-1.7-41.9-3.3-44.7-3.6l-5.3-.6V642h123v35zm27-34.3c0 .5-.5 1.5-1 2.3-.8 1.2-1 1.1-1-.8 0-1.2.5-2.2 1-2.2.6 0 1 .3 1 .7zm-606.6 469.8c10.9 5.2 19.9 15.6 23.1 26.9 2.7 9.4 1.8 22.3-2.3 30.7-3.8 7.9-12.8 16.9-20.4 20.4-26.2 11.9-56.1-3.9-61-32.4-3.1-17.9 6.8-36.9 23.5-45.1 11-5.4 26.3-5.6 37.1-.5zm697.1.6c8 3.9 16.7 12.8 20.1 20.4 16.4 37.1-21.4 73.7-58.3 56.5-16.3-7.5-26.4-27-23.5-44.8 4.8-28.7 35.8-44.9 61.7-32.1z"/><path d="M145.5 1131.3c-6 2.9-8.7 5.7-11.4 11.7-8.1 17.8 8.6 37 27.4 31.6 10.5-3.1 16.8-11.4 16.8-22.1.1-13.1-8.6-22.3-21.8-23.2-4.9-.3-6.9 0-11 2zM843.9 1130.4c-5.6 2-9.6 5.3-12.6 10.4-2.4 3.9-2.8 5.8-2.8 11.7.1 7.8 1.4 11.3 6.6 16.3 4.8 4.6 9.5 6.6 16.4 6.5 7.4 0 12.8-2.5 17.8-8.4 15-17.5-3.6-44.3-25.4-36.5z"/></svg>